<?xml version="1.0" encoding="utf-8"?>
<!-- Generator: Adobe Illustrator 23.1.1, SVG Export Plug-In . SVG Version: 6.00 Build 0)  -->
<svg version="1.1" id="Layer_1" xmlns="http://www.w3.org/2000/svg" xmlns:xlink="http://www.w3.org/1999/xlink" x="0px" y="0px"
	 viewBox="0 0 57 64" style="enable-background:new 0 0 57 64;" xml:space="preserve">
<style type="text/css">
	.st0{fill:#E9E2C3;}
	.st1{fill:#300603;}
</style>
<g>
	<path class="st0" d="M0,0v63.3h41.2c8.3,0,15-6.7,15-15V0H0z"/>
	<path class="st1" d="M27.2,18.5c-3.9,0.1-7,2.6-7,5.6c0,3.1,3.3,5.7,7.3,5.7l2.6-0.1v-3.3H28l0,1h-0.5c-2.4,0-4.3-1.5-4.3-3.3
		c0-1.8,1.8-3.2,4-3.3V18.5z"/>
	<path class="st1" d="M30.5,25.3h-4.7l0-2H30c1.8,0,1.7-0.6,1.7-0.6c0-1.6-3.6-1.7-3.6-1.7v-2.4c5,0,7.2,3.4,7.2,3.4
		c1.3,1.8-0.1,2.4-0.1,2.4c1.8,3.1-3.8,5.1-3.8,5.1V26C31.3,26,31.4,25.3,30.5,25.3"/>
	<path class="st1" d="M19.8,18.3c0.1-0.2,0.1-0.3,0-0.5c0-0.1,0-0.1,0-0.2c0.1-0.1,0.2,0,0.2,0.1l0.6,0.7c0,0,0.1,0.1,0,0.2
		c-0.1,0.1-0.1,0-0.2,0c-0.1-0.1-0.3-0.2-0.5,0L19.8,18.3z M20.7,19.4c0.3-0.3,0.4-0.7,0.3-1c0-0.1,0-0.1,0-0.2c0.1-0.1,0.2,0,0.2,0
		l0.5,0.6l-0.9,0.7L20.7,19.4z M18.9,17.2l0.9-0.7l0.5,0.6c0,0,0.1,0.1-0.1,0.2c-0.1,0.1-0.1,0-0.2,0c-0.3-0.2-0.6-0.2-1,0.1
		L18.9,17.2z M17.7,18.2l1-0.8l1.9,2.3l-1,0.8c0,0-0.1,0.1-0.2,0c0,0,0-0.1,0-0.2c0.1-0.1,0.1-0.2,0-0.3l-1.3-1.6
		c-0.1-0.1-0.1-0.1-0.3-0.1c-0.1,0-0.1,0-0.2,0C17.5,18.4,17.7,18.3,17.7,18.2"/>
	<path class="st1" d="M22.8,17.5l0,0.1c0,0.1-0.1,0.3-0.1,0.4c0.1,0.2,0.3,0,0.4,0.2c0,0,0,0.1,0,0.1c0,0-0.1,0.1-0.2,0.1l-0.6,0.2
		c-0.1,0-0.2,0.1-0.3,0c0-0.1,0-0.1,0.1-0.2c0.1-0.1,0.2-0.2,0.3-0.4l0.2-0.7L22.8,17.5z M23.3,15.9l0-0.1c0-0.1,0.1-0.2,0-0.2
		c0-0.1-0.1-0.1-0.2-0.1c-0.1,0-0.1,0-0.2-0.1c0,0,0-0.1,0-0.1c0-0.1,0.1-0.1,0.2-0.1l0.6-0.2c0.1,0,0.2-0.1,0.3,0
		c0,0.1,0,0.1-0.1,0.2c-0.1,0.1-0.2,0.2-0.2,0.4L23.5,16L23.3,15.9z M24.8,17.3c0.1,0.1,0.1,0.1,0.2,0.1c0.1,0,0.1,0,0.2,0.1
		c0.1,0.1-0.1,0.2-0.3,0.2l-1.1,0.4c-0.1,0-0.3,0.1-0.4,0c0-0.1,0.1-0.2,0.1-0.2c0-0.1-0.1-0.1-0.1-0.1l-2-1.5
		c-0.1-0.1-0.1-0.1-0.3-0.1c-0.1,0-0.1,0-0.1-0.1c-0.1-0.1,0.1-0.2,0.3-0.2l1.1-0.4c0.1,0,0.3-0.1,0.4,0c0,0.1-0.1,0.1-0.1,0.2
		c0,0,0,0.1,0.1,0.1L24.8,17.3z"/>
	<path class="st1" d="M25.7,15c0-0.1,0-0.2-0.2-0.2c-0.1,0-0.1,0-0.1-0.1c0-0.1,0.1-0.1,0.2-0.1l1.3-0.1l0.3,2.6
		c0,0.2,0,0.2,0.2,0.2c0.1,0,0.1,0,0.1,0.1c0,0.1-0.2,0.1-0.2,0.1l-1.4,0.2c0,0-0.2,0-0.2-0.1c0-0.1,0-0.1,0.1-0.1
		c0.2-0.1,0.2-0.1,0.1-0.2L25.7,15z M27.1,14.4c0.5-0.1,0.8,0,1,0c0.4,0.1,0.6,0.4,0.6,0.7c0,0.3-0.1,0.6-0.4,0.8
		c-0.2,0.1-0.5,0.2-1,0.3l0-0.2c0.3-0.1,0.3-0.3,0.3-0.4L27.5,15c0-0.2-0.1-0.3-0.4-0.3L27.1,14.4z"/>
	<path class="st1" d="M30.4,17.5c0.2,0,0.3-0.1,0.3-0.3l0.3-2.1c0-0.1,0-0.2-0.2-0.3l0-0.2c1.1,0.2,1.4,1,1.3,1.8
		c-0.1,0.8-0.7,1.4-1.8,1.3L30.4,17.5z M30.5,14.8c-0.2,0-0.3,0.2-0.3,0.3l-0.3,2.1c0,0.1,0,0.2,0.2,0.3l0,0.2
		c-1.1-0.2-1.5-1-1.3-1.8c0.1-0.8,0.7-1.4,1.8-1.3L30.5,14.8z"/>
	<path class="st1" d="M34.5,15.6L34.5,15.6c0.3,0.1,0.6,0.3,0.9,0.5c0.3,0.3,0.3,0.5,0.2,0.8c-0.2,0.4-0.6,0.5-1.1,0.4l0,0
		c0.4,0.2,0.8,0.5,0.6,0.9L35,18.5c0,0-0.1,0.1,0,0.1c0.1,0,0.1-0.1,0.2,0c0.1,0,0.1,0.1,0.1,0.2c0,0.1-0.3,0.2-0.4,0.2
		c-0.2,0-0.4,0-0.6-0.1c-0.2-0.1-0.4-0.2-0.5-0.4c-0.1-0.2-0.1-0.4,0-0.6l0.1-0.2c0.1-0.2,0.1-0.4-0.1-0.5L34,17
		c0.3,0.1,0.3,0,0.4-0.2l0.2-0.5c0.1-0.2,0.1-0.3-0.1-0.5L34.5,15.6z M33,15.5c0.1-0.1,0.1-0.2-0.1-0.3c-0.1,0-0.1-0.1-0.1-0.1
		c0-0.1,0.2-0.1,0.2,0l1.2,0.5l-1,2.4c-0.1,0.1-0.1,0.2,0.1,0.3c0,0,0.1,0.1,0.1,0.1c0,0.1-0.2,0.1-0.2,0l-1.3-0.5
		c0,0-0.2-0.1-0.1-0.2c0-0.1,0.1-0.1,0.1-0.1c0.2,0,0.2,0,0.2-0.1L33,15.5z"/>
	<path class="st1" d="M36.8,16.9l0.5,0.5l-0.2,0.2c-0.3-0.1-0.5,0.1-0.7,0.2c-0.1,0.1-0.2,0.1-0.3,0c-0.1-0.1-0.1-0.2,0-0.2
		L36.8,16.9z M38.5,19.7c0,0-0.1,0.1-0.2,0c-0.1-0.1,0-0.2,0-0.3c0.1-0.2,0.2-0.4,0.1-0.7l0.2-0.2l0.5,0.5L38.5,19.7z M37.5,17.5
		l0.9,0.8l-1.7,1.9c-0.1,0.1-0.1,0.1,0,0.3c0.1,0.1,0.1,0.1,0,0.2c-0.1,0.1-0.2,0-0.2,0l-1.1-1c0,0-0.1-0.1-0.1-0.2c0,0,0.1,0,0.2,0
		c0.2,0.1,0.2,0.1,0.3,0L37.5,17.5z"/>
	<path class="st1" d="M19.6,27.4L19.6,27.4c0.2,0.3,0.4,0.5,0.5,0.8c0.1,0.3,0,0.6-0.2,0.8c-0.4,0.3-0.8,0.1-1.2-0.2l0,0
		c0.2,0.4,0.4,0.8,0.1,1.1l-0.3,0.2c0,0-0.1,0.1-0.1,0.1c0,0.1,0.1,0,0.2,0.1c0,0.1,0,0.2,0,0.2c-0.1,0.1-0.3,0-0.4,0
		c-0.2-0.1-0.3-0.2-0.5-0.4c-0.1-0.2-0.2-0.4-0.2-0.6c0-0.2,0.1-0.4,0.3-0.5l0.2-0.2c0.1-0.1,0.3-0.3,0.1-0.5l0.2-0.2
		c0.2,0.2,0.3,0.1,0.5,0l0.4-0.3c0.2-0.1,0.2-0.2,0.1-0.5L19.6,27.4z M18.3,26.5c0.1-0.1,0.1-0.1,0.1-0.3c0-0.1,0-0.1,0-0.2
		c0.1-0.1,0.2,0,0.2,0.1l0.8,1l-2,1.6c-0.1,0.1-0.1,0.1-0.1,0.3c0,0.1,0,0.1,0,0.2c-0.1,0.1-0.2-0.1-0.2-0.1L16.2,28
		c0,0-0.1-0.1,0-0.2c0,0,0.1,0,0.2,0c0.1,0.1,0.2,0.1,0.3,0L18.3,26.5z"/>
	<path class="st1" d="M21.5,30.5c0.2,0.1,0.4,0,0.5-0.1c0.1,0,0.1-0.1,0.2,0c0.1,0.1,0,0.2,0,0.2l-0.4,0.8c0,0-0.1,0.2-0.2,0.1
		c-0.1-0.1-0.1-0.1-0.1-0.2c0-0.2,0-0.3-0.1-0.5L21.5,30.5z M20.8,31.8c0.4,0.2,0.8,0.1,1-0.1c0.1,0,0.1-0.1,0.2,0
		c0.1,0.1,0.1,0.2,0.1,0.2l-0.4,0.7l-1-0.6L20.8,31.8z M22.2,29.4l1,0.6l-0.4,0.7c0,0-0.1,0.1-0.2,0c-0.1,0-0.1-0.1-0.1-0.2
		c0-0.4-0.1-0.6-0.4-0.9L22.2,29.4z M20.8,28.6l1.2,0.7l-1.5,2.6l-1.2-0.7c0,0-0.2-0.1-0.1-0.2c0,0,0.1-0.1,0.1,0
		c0.2,0,0.2,0,0.3-0.1l1-1.8c0.1-0.1,0.1-0.2,0-0.3c-0.1,0-0.1-0.1-0.1-0.1C20.7,28.5,20.8,28.6,20.8,28.6"/>
	<path class="st1" d="M23.1,32c0-0.1,0.1-0.2,0.2-0.2c0.1,0,0.1,0.1,0.1,0.2c0,0.3,0.2,0.8,0.6,1l-0.1,0.2c-0.4-0.1-0.5-0.3-0.7-0.3
		c-0.2,0-0.2,0.1-0.3,0.1c-0.2,0-0.1-0.2-0.1-0.2L23.1,32z M26,31.4c0,0.1-0.1,0.2-0.2,0.1c-0.1,0-0.1-0.1-0.1-0.2
		c0-0.3-0.2-0.7-0.6-0.8l0.1-0.2c0.3,0.1,0.6,0.3,0.7,0.3c0.1,0,0.2-0.1,0.3-0.1c0.2,0,0.1,0.2,0.1,0.2L26,31.4z M24.8,30.4
		c-0.2,0-0.4,0.1-0.4,0.2c0,0.2,0.1,0.3,0.6,0.7c0.8,0.5,0.9,0.9,0.8,1.3c-0.2,0.6-0.9,0.8-1.6,0.7l0.1-0.2c0.3,0,0.5,0,0.5-0.2
		c0.1-0.2-0.3-0.4-0.5-0.6c-0.6-0.4-1.1-0.7-0.9-1.3c0.2-0.6,0.8-0.8,1.5-0.7L24.8,30.4z"/>
	<path class="st1" d="M28.1,32.1c0.2,0,0.3-0.2,0.4-0.4c0-0.1,0.1-0.1,0.2-0.1c0.2,0,0.1,0.1,0.1,0.2l0,0.9c0,0,0,0.2-0.1,0.2
		c-0.1,0-0.1-0.1-0.2-0.1c0-0.2-0.1-0.3-0.3-0.4L28.1,32.1z M28,33.5c0.4,0,0.7-0.2,0.9-0.6c0-0.1,0.1-0.1,0.2-0.1
		c0.2,0,0.1,0.1,0.1,0.1l0,0.8l-1.2,0L28,33.5z M28.1,30.7l1.1,0l0,0.8c0,0,0,0.1-0.2,0.1c-0.1,0-0.1-0.1-0.1-0.1
		c-0.1-0.3-0.4-0.5-0.8-0.6L28.1,30.7z M26.5,30.7l1.3,0l-0.1,3l-1.3,0c0,0-0.2,0-0.2-0.1c0-0.1,0-0.1,0.1-0.1
		c0.2,0,0.2-0.1,0.2-0.2l0.1-2.1c0-0.1,0-0.2-0.2-0.2c-0.1,0-0.1-0.1-0.1-0.1C26.3,30.7,26.5,30.7,26.5,30.7"/>
	<path class="st1" d="M31.1,30.3L31.1,30.3c0.4-0.1,0.7-0.2,1-0.1c0.4,0,0.6,0.2,0.7,0.5c0.1,0.5-0.2,0.7-0.7,0.9l0,0
		c0.4-0.1,0.9-0.1,1,0.4l0.1,0.3c0,0,0,0.1,0.1,0.1c0.1,0,0.1-0.1,0.2-0.2c0.1,0,0.2,0,0.2,0.1c0,0.1-0.1,0.3-0.2,0.4
		c-0.1,0.1-0.3,0.2-0.5,0.3c-0.2,0-0.4,0-0.6,0c-0.2-0.1-0.3-0.3-0.3-0.5l-0.1-0.3c0-0.2-0.1-0.4-0.4-0.4l-0.1-0.2
		c0.3-0.1,0.3-0.2,0.2-0.4l-0.1-0.5c0-0.2-0.1-0.3-0.4-0.3L31.1,30.3z M29.8,31.1c0-0.1,0-0.2-0.2-0.2c-0.1,0-0.1,0-0.1-0.1
		c0-0.1,0.1-0.2,0.2-0.2l1.3-0.3l0.6,2.5c0,0.2,0,0.2,0.2,0.2c0.1,0,0.1,0,0.1,0.1c0,0.1-0.1,0.2-0.2,0.2l-1.4,0.3
		c0,0-0.2,0-0.2-0.1c0,0,0-0.1,0.1-0.1c0.2-0.1,0.2-0.1,0.1-0.2L29.8,31.1z"/>
	<path class="st1" d="M35.3,30.3l-0.2-1c0-0.1,0-0.1-0.1-0.2c-0.1-0.1-0.1-0.1-0.3-0.1c-0.1,0-0.2,0-0.2,0c-0.1-0.1,0.1-0.2,0.2-0.3
		l0.5-0.3c0.1-0.1,0.3-0.2,0.3-0.1c0.1,0.1,0,0.1-0.1,0.2c-0.1,0.1-0.1,0.2-0.1,0.3c0,0.1,0,0.2,0,0.3l0.3,1.4l0,0L35.3,30.3z
		 M35.9,31.8l-0.7,0.4l-2.3-1.8c-0.1-0.1-0.1-0.1-0.2-0.1c-0.1,0-0.1,0-0.2-0.1c-0.1-0.1,0.1-0.2,0.2-0.3l1-0.6
		c0.1-0.1,0.3-0.2,0.4-0.1c0.1,0.1-0.2,0.2-0.1,0.3c0,0,0,0.1,0.1,0.1l1.5,1.3L35.9,31.8z"/>
	<path class="st1" d="M37.8,28c0.1-0.2,0.1-0.4,0-0.5c0-0.1-0.1-0.1,0-0.2c0.1-0.1,0.2,0,0.2,0l0.6,0.6c0,0,0.1,0.1,0,0.2
		c-0.1,0.1-0.1,0.1-0.2,0c-0.2-0.1-0.3-0.1-0.5,0L37.8,28z M38.8,29c0.3-0.3,0.3-0.7,0.2-1c0-0.1,0-0.1,0-0.2c0.1-0.1,0.2,0,0.2,0
		l0.6,0.6l-0.8,0.8L38.8,29z M36.8,27l0.8-0.8l0.6,0.6c0,0,0.1,0.1,0,0.2C38.1,27,38,27,38,27c-0.3-0.1-0.6-0.1-1,0.2L36.8,27z
		 M35.7,28.1l1-0.9l2.1,2.2l-1,0.9c0,0-0.1,0.1-0.2,0c0,0,0-0.1,0-0.2c0.1-0.2,0.1-0.2,0-0.3l-1.5-1.5c-0.1-0.1-0.1-0.1-0.3,0
		c-0.1,0-0.1,0-0.2,0C35.6,28.2,35.7,28.1,35.7,28.1"/>
	<path class="st1" d="M15,23.4c0,0,0.8-0.6,1.7,0C16.7,23.5,16,24,15,23.4"/>
	<path class="st1" d="M15.9,21.4c0,0,1.4,0.4,1.6,2C17.5,23.3,16,22.7,15.9,21.4"/>
	<path class="st1" d="M17.4,23.8c0,0-1.4,0.4-1.7,1.6C15.7,25.4,17.2,25.2,17.4,23.8"/>
	<path class="st1" d="M18.8,23.5c0,0-2.3-1.8-1.9-3.8C16.8,19.7,18.4,20.4,18.8,23.5"/>
	<path class="st1" d="M16.2,27.2c0,0,0.2-2.2,2.5-3.2C18.7,24,18.4,26.3,16.2,27.2"/>
	<path class="st1" d="M41.1,23.5c0,0-0.8-0.6-1.7,0C39.3,23.5,40.1,24.1,41.1,23.5"/>
	<path class="st1" d="M40.3,21.4c0,0-1.4,0.3-1.7,1.9C38.6,23.3,40.2,22.8,40.3,21.4"/>
	<path class="st1" d="M38.7,23.8c0,0,1.4,0.4,1.6,1.6C40.3,25.4,38.9,25.2,38.7,23.8"/>
	<path class="st1" d="M37.3,23.4c0,0,2.4-1.8,2.1-3.7C39.4,19.7,37.8,20.4,37.3,23.4"/>
	<path class="st1" d="M39.8,27.3c0,0-0.1-2.2-2.4-3.3C37.4,23.9,37.6,26.2,39.8,27.3"/>
	<path class="st1" d="M22.7,37.5c0,0.3-0.3,0.4-0.5,0.5c-0.4,0.1-0.6-0.1-0.6-0.1c-0.3-0.4-0.1-0.8-0.5-0.8c-0.7,0-0.9,0.6-1,1.2
		c-0.1,0.7,0.2,1.4,1.2,1.4c0.4,0,0.8-0.1,1-0.4c0.1,0,0.3,0,0.3,0.2c-0.2,0.4-1.2,1.1-2.3,1.1c-1.4,0-2-0.9-2-1.5
		c0.1-1.3,1.2-2.3,2.7-2.3C21.5,36.6,22.6,36.7,22.7,37.5"/>
	<path class="st1" d="M25.5,38.8c0-0.1-0.1-0.2-0.2-0.2c-0.5,0.1-0.8,0.4-0.8,0.7c0,0.3,0.1,0.5,0.4,0.5c0.3,0,0.5-0.3,0.5-0.6
		L25.5,38.8z M27.1,39c0,0.6,0.1,0.7,0.3,0.7c0.1,0,0.2,0,0.3-0.1c0.1,0,0.2,0.1,0.1,0.2c-0.1,0.1-0.8,0.5-1.4,0.5
		c-0.4,0-0.6-0.1-0.9-0.3C25.5,40,25.5,40,25.4,40c-0.1,0-0.1,0-0.2,0.1c-0.2,0.1-0.6,0.3-1.1,0.3c-0.6,0-1.1-0.3-1-0.9
		c0.1-0.4,0.5-0.7,0.9-0.8c0.4-0.1,1-0.3,1.3-0.3c0.2,0,0.2-0.3,0.2-0.3c0-0.1,0-0.2,0-0.3c0-0.3,0.1-0.8-0.4-0.8
		c-0.3,0-0.4,0.3-0.5,0.7c0,0.1-0.3,0.3-0.4,0.3C24,38,23.8,38,23.6,38c-0.4-0.1-0.4-0.4-0.4-0.5c0-0.2,0.2-0.4,0.5-0.6
		c0.4-0.2,1.3-0.4,2.1-0.4c1.3,0,1.5,0.4,1.5,1.3L27.1,39z"/>
	<path class="st1" d="M30.6,37c-0.3,0-0.3,0.6-0.3,0.8l0,1.6c0,0.6,0.3,0.6,0.7,0.6l0.3,0c0.1,0.1,0.1,0.2,0,0.3c-0.5,0-1.5,0-2,0
		c-0.5,0-0.9,0-1.2,0c-0.1,0-0.1-0.2,0-0.3l0.2,0c0.4,0,0.4-0.1,0.4-0.6v-1.6c0-0.2,0-0.8-0.3-0.8h-0.4c-0.1,0-0.1-0.4,0.1-0.4
		l0.4,0c0.4,0,0.5,0,0.5,0c0.2-0.4,0.1-0.2,0.3-0.6c0.3-0.5,0.8-1.1,2-1.1c0.6,0,1,0.2,1,0.6c0,0.3-0.2,0.6-0.6,0.6
		c-0.2,0-0.3,0-0.4-0.1c-0.5-0.4-0.3-0.5-0.5-0.5c-0.3,0-0.4,0.1-0.4,0.6v0.3c0,0.2,0,0.2,0.3,0.2h1c0.1,0,0.1,0.1,0.1,0.1
		c0,0.1,0,0.2-0.1,0.3H30.6z"/>
	<path class="st1" d="M34.3,37.5c0.1,0,0.1-0.1,0.1-0.2c0-0.2-0.1-0.5-0.5-0.5c-0.5,0-0.8,0.4-0.8,0.7
		C33.2,37.9,34.2,37.6,34.3,37.5 M33.6,38.1c-0.3,0-0.5,0-0.5,0.2c0,0.7,0.7,1.2,1.2,1.2c0.3,0,0.7,0,1.1-0.4
		c0.1-0.1,0.4,0.1,0.3,0.2c-0.5,0.7-1.5,1-2.2,1c-1.5,0-2.2-0.7-2.2-1.7c0-1.1,1.1-2.2,2.5-2.2c1.2,0,1.6,0.6,1.8,0.9
		c0.1,0.2,0.1,0.3,0,0.4L33.6,38.1z"/>
	<path class="st1" d="M34.4,35.8c0.2-0.4,0.3-0.7,0.7-0.8c0.1,0,0.3,0,0.4,0.2c0.1,0.2,0.1,0.5-0.1,0.6c-0.4,0.3-0.7,0.5-1.1,0.6
		c-0.1,0-0.1,0-0.1-0.1C34.3,36.2,34.3,36.1,34.4,35.8"/>
	<path class="st1" d="M11.8,50.9c0,1.2,0.1,2.2,1.4,2.1c0.7-0.1,1.1-0.9,1.1-2.2c0-1.4-1.1-2.1-1.4-2.1c-1-0.3-1.2,0-1.2,0.7V50.9z
		 M12,47.7c0,0.4,0.2,0.4,0.6,0.3c1.3-0.3,1.8-1.4,1.8-2.3c0-1.4-0.8-1.6-1.4-1.6c-1,0-1,0.4-1,1.1V47.7z M8.1,45.7
		c0-1.6,0.2-1.8-0.7-1.9l-0.6-0.1c-0.2-0.1-0.2-0.6,0.1-0.6c1.6-0.1,3.2,0,5.4,0c2.1,0,3.4,0,4.4,0.4c1.1,0.4,1.5,1.1,1.3,2.1
		c-0.2,1.6-2.7,2-2.7,2.1c0,0,0.3,0.1,0.5,0.1c1.7,0.3,2.8,1.3,2.9,2.8c0,1.5-1,2.4-2.3,2.7c-1.4,0.4-2.9,0.4-4.2,0.4
		c-0.8,0-1.6,0-2.2,0c-1.1,0-2.1,0-3.4,0c-0.2-0.1-0.2-0.5,0-0.6L7,53c1-0.1,1-0.3,1-1.7V45.7z"/>
	<path class="st1" d="M20.1,48.8c0-0.7,0.1-1.4-0.3-1.6L19,46.9c-0.2-0.1-0.3-0.3-0.1-0.4c1.2-0.2,3.3-0.1,4.1-0.5
		c0.2,0,0.3,0,0.4,0.1c0,0.4-0.1,0.8-0.1,1c0,0.1,0,0.3,0.3,0.2c0.6-0.4,1.4-1.2,2.4-1.2c0.7,0,1.3,0.6,1.3,1.2
		c0,0.8-0.6,1.4-1.4,1.4c-0.4,0-0.5-0.1-0.8-0.4c-0.4-0.4-0.7-0.6-0.9-0.6c-0.6,0-0.9,0.4-0.9,1.1v2.5c0,1.2,0.2,1.4,1,1.4l0.8,0.1
		c0.2,0.1,0.2,0.5,0,0.6c-1.2,0-2.2-0.1-3.4-0.1c-1,0-2.1,0-3,0.1c-0.2-0.1-0.2-0.5,0-0.6l0.5,0c0.8-0.1,0.9-0.2,0.9-1.5V48.8z"/>
	<path class="st1" d="M32.4,43.4c0,1.1-0.8,1.7-1.9,1.8c-1.2,0.2-2-0.5-2-1.5c0-1,1-1.8,2.1-1.8C31.9,41.9,32.4,42.4,32.4,43.4
		 M32,51.5c0,1.3,0,1.4,0.7,1.5l0.4,0c0.2,0.1,0.2,0.5,0,0.6c-0.7,0-1.9,0-2.9,0c-1,0-1.9,0-2.6,0c-0.2-0.1-0.2-0.5,0-0.6l0.4,0
		c0.7-0.1,0.8-0.2,0.8-1.5v-2.7c0-0.7,0.2-1.5-0.4-1.7l-0.7-0.3c-0.2-0.1-0.2-0.2-0.1-0.4c1-0.2,3.5-0.2,4.1-0.6
		c0.2,0,0.3,0.1,0.4,0.2c0,0.5-0.1,1.3-0.1,2.1L32,51.5z"/>
	<path class="st1" d="M38.3,47.3c-0.3,0-1,0-1,0.4l-0.1,2.7c0,1-0.2,2.1,1.2,2.1c0.3,0,0.6-0.2,0.9-0.3c0.2,0.1,0.3,0.3,0.3,0.5
		c-0.6,0.5-1.9,1-3.2,1c-1.8,0-2.4-0.7-2.4-1.9v-4c0-0.4,0-0.4-0.4-0.4l-0.4-0.1c-0.2-0.1-0.4-0.5-0.2-0.6c0.7-0.2,1.1-0.4,1.6-0.7
		c0.4-0.2,0.6-0.4,1-1.4c0,0,1.8-0.4,1.9-0.3l0,1.2c0,0.3-0.1,0.8,0.3,0.8h2c0.1,0.1,0.2,0.3,0.2,0.4c0,0.2-0.1,0.5-0.3,0.6H38.3z"
		/>
	<path class="st1" d="M46,47.3c-0.3,0-1,0-1,0.4l-0.1,2.7c0,1-0.3,2.1,1.3,2.1c0.3,0,0.6-0.2,0.9-0.3c0.2,0.1,0.3,0.3,0.3,0.5
		c-0.6,0.5-1.9,1-3.2,1c-1.8,0-2.4-0.7-2.4-1.9v-4c0-0.4,0-0.4-0.4-0.4l-0.4-0.1c-0.2-0.1-0.4-0.5-0.2-0.6c0.7-0.2,1.1-0.4,1.6-0.7
		c0.4-0.2,0.5-0.4,1-1.4c0,0,1.8-0.4,1.9-0.3l0,1.2c0,0.3-0.1,0.8,0.3,0.8h2c0.1,0.1,0.2,0.3,0.2,0.4c0,0.2-0.1,0.5-0.3,0.6H46z"/>
	<path class="st1" d="M48.6,52.3C48.6,52.3,48.6,52.3,48.6,52.3c0.2,0.1,0.3,0,0.3-0.1c0-0.1-0.1-0.2-0.1-0.2c-0.1,0-0.1,0-0.1,0.1
		V52.3z M48.4,52.1c0-0.1,0-0.1-0.1-0.2h0c0,0,0-0.1,0-0.1c0.2,0,0.3,0,0.4,0c0.2,0,0.4,0,0.4,0.3c0,0.1-0.1,0.2-0.1,0.2
		c0,0,0,0,0,0.1c0.1,0.2,0.1,0.3,0.2,0.3c0,0,0,0,0.1,0c0,0,0,0,0,0.1c0,0-0.1,0-0.1,0c-0.1,0-0.2,0-0.3-0.2c0-0.1-0.1-0.1-0.1-0.2
		c0,0,0-0.1-0.1-0.1c0,0,0,0,0,0v0.1c0,0.1,0,0.1,0.1,0.2l0,0c0,0,0,0.1,0,0.1c-0.1,0-0.1,0-0.2,0c-0.1,0-0.2,0-0.2,0
		c0,0,0-0.1,0-0.1l0,0c0.1,0,0.1,0,0.1-0.2V52.1z M48,52.4c0,0.5,0.4,0.8,0.8,0.8c0.4,0,0.8-0.4,0.8-0.8c0-0.5-0.4-0.8-0.8-0.8
		C48.3,51.5,48,51.9,48,52.4 M49.8,52.4c0,0.6-0.5,1-1,1c-0.6,0-1-0.4-1-1c0-0.6,0.5-1,1-1C49.3,51.4,49.8,51.8,49.8,52.4"/>
</g>
</svg>
